<svg width="25" height="24" viewBox="0 0 25 24" fill="none" xmlns="http://www.w3.org/2000/svg">
<g clip-path="url(#clip0_23_1346)">
<path d="M3.35938 19.7812V21.1875H2.12187L0.5 24H10.3906L8.76875 21.1875H7.57812V19.7812H6.17188V4.08923C6.98853 3.798 7.57812 3.02484 7.57812 2.10938C7.57812 0.946219 6.63191 0 5.46875 0C4.30559 0 3.35938 0.946219 3.35938 2.10938C3.35938 3.02484 3.94897 3.798 4.76562 4.08923V19.7812H3.35938Z" fill="#14A0FF"/>
<path d="M16.1969 2.96762C13.9908 3.42971 12.715 4.11981 11.6905 4.67462C10.6653 5.22873 9.89834 5.63181 8.61566 5.62285C8.28416 5.62004 7.92945 5.53177 7.57812 5.41224V14.0049C8.20681 14.0835 8.85509 14.1332 9.51514 14.1332C11.8587 14.1332 14.2949 13.5962 16.0788 12.2291C17.6031 10.9389 18.156 11.1463 19.3804 11.6455L20.5401 12.1186L20.3396 10.8819C20.0945 9.37201 19.6633 8.16217 18.9965 7.12876C19.8686 6.35832 21.2735 5.6964 22.7738 5.15738L24.5 4.53592L22.8006 3.84446C20.4853 2.90101 18.101 2.60438 16.1969 2.96762Z" fill="#14A0FF"/>
</g>
<defs>
<clipPath id="clip0_23_1346">
<rect width="24" height="24" fill="white" transform="translate(0.5)"/>
</clipPath>
</defs>
</svg>
