<svg width="25" height="24" viewBox="0 0 25 24" fill="none" xmlns="http://www.w3.org/2000/svg">
<path d="M21.6001 5.25H18.8501V2.5C18.8501 2.16848 18.7184 1.85054 18.484 1.61612C18.2496 1.3817 17.9316 1.25 17.6001 1.25H2.6001C2.26858 1.25 1.95063 1.3817 1.71621 1.61612C1.48179 1.85054 1.3501 2.16848 1.3501 2.5V19C1.3501 19.9946 1.74519 20.9484 2.44845 21.6517C3.15171 22.3549 4.10554 22.75 5.1001 22.75H20.1001C20.8294 22.75 21.5289 22.4603 22.0446 21.9445C22.5604 21.4288 22.8501 20.7293 22.8501 20V6.5C22.8501 6.16848 22.7184 5.85054 22.484 5.61612C22.2496 5.3817 21.9316 5.25 21.6001 5.25ZM11.1001 18.25H5.1001C4.90119 18.25 4.71042 18.171 4.56977 18.0303C4.42912 17.8897 4.3501 17.6989 4.3501 17.5C4.3501 17.3011 4.42912 17.1103 4.56977 16.9697C4.71042 16.829 4.90119 16.75 5.1001 16.75H11.1001C11.299 16.75 11.4898 16.829 11.6304 16.9697C11.7711 17.1103 11.8501 17.3011 11.8501 17.5C11.8501 17.6989 11.7711 17.8897 11.6304 18.0303C11.4898 18.171 11.299 18.25 11.1001 18.25ZM15.1001 15.25H5.1001C4.90119 15.25 4.71042 15.171 4.56977 15.0303C4.42912 14.8897 4.3501 14.6989 4.3501 14.5C4.3501 14.3011 4.42912 14.1103 4.56977 13.9697C4.71042 13.829 4.90119 13.75 5.1001 13.75H15.1001C15.299 13.75 15.4898 13.829 15.6304 13.9697C15.7711 14.1103 15.8501 14.3011 15.8501 14.5C15.8501 14.6989 15.7711 14.8897 15.6304 15.0303C15.4898 15.171 15.299 15.25 15.1001 15.25ZM15.8501 11C15.8475 11.1981 15.7677 11.3874 15.6276 11.5275C15.4875 11.6676 15.2982 11.7474 15.1001 11.75H5.1001C4.90199 11.7474 4.71273 11.6676 4.57263 11.5275C4.43254 11.3874 4.35269 11.1981 4.3501 11V6C4.35269 5.80189 4.43254 5.61263 4.57263 5.47253C4.71273 5.33244 4.90199 5.25259 5.1001 5.25H15.1001C15.2982 5.25259 15.4875 5.33244 15.6276 5.47253C15.7677 5.61263 15.8475 5.80189 15.8501 6V11ZM21.3501 20C21.3501 20.3315 21.2184 20.6495 20.984 20.8839C20.7496 21.1183 20.4316 21.25 20.1001 21.25C19.7686 21.25 19.4506 21.1183 19.2162 20.8839C18.9818 20.6495 18.8501 20.3315 18.8501 20V6.75H21.3501V20Z" fill="#14A0FF"/>
<path d="M5.8501 6.75H14.3501V10.25H5.8501V6.75Z" fill="#14A0FF"/>
</svg>
