<svg width="25" height="24" viewBox="0 0 25 24" fill="none" xmlns="http://www.w3.org/2000/svg">
<g clip-path="url(#clip0_33_4918)">
<path d="M23.383 9.394L21.503 9.155C21.348 8.678 21.157 8.218 20.934 7.781L22.095 6.286C22.565 5.681 22.51 4.827 21.973 4.307L20.398 2.732C19.873 2.19 19.019 2.136 18.413 2.605L16.92 3.766C16.483 3.543 16.023 3.352 15.545 3.197L15.306 1.32C15.216 0.567 14.577 0 13.82 0H11.58C10.823 0 10.184 0.567 10.094 1.317L9.85495 3.197C9.37695 3.352 8.91695 3.542 8.47995 3.766L6.98595 2.605C6.38195 2.136 5.52795 2.19 5.00695 2.727L3.43195 4.301C2.88995 4.827 2.83495 5.681 3.30495 6.287L4.46595 7.781C4.24195 8.218 4.05195 8.678 3.89695 9.155L2.01995 9.394C1.26695 9.484 0.699951 10.123 0.699951 10.88V13.12C0.699951 13.877 1.26695 14.516 2.01695 14.606L3.89695 14.845C4.05195 15.322 4.24295 15.782 4.46595 16.219L3.30495 17.714C2.83495 18.319 2.88995 19.173 3.42695 19.693L5.00195 21.268C5.52795 21.809 6.38095 21.863 6.98695 21.394L8.48095 20.233C8.91795 20.457 9.37795 20.648 9.85495 20.802L10.094 22.678C10.184 23.433 10.823 24 11.58 24H13.82C14.577 24 15.216 23.433 15.306 22.683L15.545 20.803C16.022 20.648 16.482 20.457 16.919 20.234L18.414 21.395C19.019 21.865 19.873 21.81 20.393 21.273L21.968 19.698C22.51 19.172 22.565 18.319 22.095 17.713L20.934 16.219C21.158 15.782 21.349 15.322 21.503 14.845L23.379 14.606C24.132 14.516 24.699 13.877 24.699 13.12V10.88C24.7 10.123 24.133 9.484 23.383 9.394ZM12.7 17C9.94295 17 7.69995 14.757 7.69995 12C7.69995 9.243 9.94295 7 12.7 7C15.457 7 17.7 9.243 17.7 12C17.7 14.757 15.457 17 12.7 17Z" fill="#14A0FF"/>
</g>
<defs>
<clipPath id="clip0_33_4918">
<rect width="24" height="24" fill="white" transform="translate(0.699951)"/>
</clipPath>
</defs>
</svg>
