<svg width="23" height="20" viewBox="0 0 23 20" fill="none" xmlns="http://www.w3.org/2000/svg">
<path fill-rule="evenodd" clip-rule="evenodd" d="M15.55 17.4922V18.7502C15.55 19.1642 15.214 19.5002 14.8 19.5002C14.386 19.5002 14.05 19.1642 14.05 18.7502V17.5002H15.3C15.384 17.5002 15.467 17.4972 15.55 17.4922Z" fill="#14A0FF"/>
<path fill-rule="evenodd" clip-rule="evenodd" d="M14.05 17.5H7.30005C5.22905 17.5 3.55005 15.821 3.55005 13.75V10.668L9.26405 13.825C10.502 14.509 12.0981 14.509 13.3361 13.825L14.05 13.431V17.5ZM15.5501 12.602L19.0501 10.668V13.75C19.0501 15.737 17.5051 17.363 15.5501 17.492V12.602Z" fill="#14A0FF"/>
<path fill-rule="evenodd" clip-rule="evenodd" d="M14.05 12.2882L12.852 12.9502C11.908 13.4722 10.692 13.4722 9.74805 12.9502L1.43405 8.35619C0.868049 8.04319 0.550049 7.49519 0.550049 6.92219C0.550049 6.34819 0.868049 5.80019 1.43405 5.48819L9.74805 0.893191C10.692 0.372191 11.908 0.372191 12.852 0.893191L21.166 5.48819C21.732 5.80019 22.05 6.34819 22.05 6.92219C22.05 7.49519 21.732 8.04319 21.166 8.35619L15.55 11.4592V10.7502C15.55 10.5512 15.471 10.3602 15.33 10.2202L11.83 6.72019C11.538 6.42719 11.062 6.42719 10.77 6.72019C10.477 7.01219 10.477 7.48819 10.77 7.78019L14.05 11.0612V12.2882Z" fill="#14A0FF"/>
</svg>
