<svg width="25" height="24" viewBox="0 0 25 24" fill="none" xmlns="http://www.w3.org/2000/svg">
<g clip-path="url(#clip0_21_1088)">
<path d="M17.1189 0C12.8542 0 9.38452 3.51652 9.38452 7.78125C9.38452 12.046 12.8542 15.5156 17.1189 15.5156C21.3836 15.5156 24.9001 12.046 24.9001 7.78125C24.9001 3.51652 21.3836 0 17.1189 0ZM19.5194 9.1875L18.5251 10.1818L17.1189 8.77552L15.7126 10.1818L14.7184 9.1875L16.1246 7.78125L14.7184 6.375L15.7126 5.38073L17.1189 6.78698L18.5251 5.38073L19.5194 6.375L18.1132 7.78125L19.5194 9.1875Z" fill="#14A0FF"/>
<path d="M7.97827 18.6192L5.57776 16.2187L6.57202 15.2244L7.97827 16.6307L10.5305 14.0784C9.12151 12.6047 8.18874 10.6713 8.01558 8.51807C4.06201 8.85744 0.900146 12.1786 0.900146 16.2187C0.900146 20.4834 4.41666 23.9999 8.6814 23.9999C12.7215 23.9999 16.0426 20.8381 16.382 16.8845C14.5802 16.7396 12.9412 16.0521 11.5854 15.0121L7.97827 18.6192Z" fill="#14A0FF"/>
</g>
<defs>
<clipPath id="clip0_21_1088">
<rect width="24" height="24" fill="white" transform="translate(0.900146)"/>
</clipPath>
</defs>
</svg>
